<mxfile host="app.diagrams.net" agent="Mozilla/5.0 (Windows NT 10.0; Win64; x64) AppleWebKit/537.36 (KHTML, like Gecko) Chrome/136.0.0.0 Safari/537.36" version="27.1.1">
  <diagram name="Página-1" id="Kr4KNyiBc2uxGTFMdfs7">
    <mxGraphModel dx="872" dy="465" grid="1" gridSize="10" guides="1" tooltips="1" connect="1" arrows="1" fold="1" page="1" pageScale="1" pageWidth="827" pageHeight="1169" math="0" shadow="0">
      <root>
        <mxCell id="0" />
        <mxCell id="1" parent="0" />
        <mxCell id="fWVjkVZFptg0hxMe3k5V-25" style="edgeStyle=orthogonalEdgeStyle;rounded=0;orthogonalLoop=1;jettySize=auto;html=1;exitX=0.5;exitY=1;exitDx=0;exitDy=0;endArrow=none;startFill=0;dashed=1;" edge="1" parent="1" source="fWVjkVZFptg0hxMe3k5V-31">
          <mxGeometry relative="1" as="geometry">
            <mxPoint x="365" y="380" as="targetPoint" />
            <Array as="points">
              <mxPoint x="365" y="310" />
              <mxPoint x="365" y="310" />
            </Array>
          </mxGeometry>
        </mxCell>
        <mxCell id="fWVjkVZFptg0hxMe3k5V-5" value="pessoaFísica:&lt;div&gt;pessoaFísica&lt;/div&gt;" style="rounded=0;whiteSpace=wrap;html=1;" vertex="1" parent="1">
          <mxGeometry x="320" y="30" width="90" height="50" as="geometry" />
        </mxCell>
        <mxCell id="fWVjkVZFptg0hxMe3k5V-35" style="edgeStyle=orthogonalEdgeStyle;rounded=0;orthogonalLoop=1;jettySize=auto;html=1;exitX=0.5;exitY=1;exitDx=0;exitDy=0;endArrow=none;startFill=0;dashed=1;" edge="1" parent="1" source="fWVjkVZFptg0hxMe3k5V-45">
          <mxGeometry relative="1" as="geometry">
            <mxPoint x="545" y="380" as="targetPoint" />
          </mxGeometry>
        </mxCell>
        <mxCell id="fWVjkVZFptg0hxMe3k5V-6" value="conta:&lt;div&gt;contaComum&lt;/div&gt;" style="rounded=0;whiteSpace=wrap;html=1;" vertex="1" parent="1">
          <mxGeometry x="500" y="30" width="90" height="50" as="geometry" />
        </mxCell>
        <mxCell id="fWVjkVZFptg0hxMe3k5V-7" value="Histórico" style="rounded=0;whiteSpace=wrap;html=1;" vertex="1" parent="1">
          <mxGeometry x="650" y="30" width="90" height="50" as="geometry" />
        </mxCell>
        <mxCell id="fWVjkVZFptg0hxMe3k5V-9" value="" style="shape=umlLifeline;perimeter=lifelinePerimeter;whiteSpace=wrap;html=1;container=1;dropTarget=0;collapsible=0;recursiveResize=0;outlineConnect=0;portConstraint=eastwest;newEdgeStyle={&quot;curved&quot;:0,&quot;rounded&quot;:0};participant=umlActor;size=50;" vertex="1" parent="1">
          <mxGeometry x="70" y="40" width="30" height="310" as="geometry" />
        </mxCell>
        <mxCell id="fWVjkVZFptg0hxMe3k5V-13" value="" style="html=1;points=[[0,0,0,0,5],[0,1,0,0,-5],[1,0,0,0,5],[1,1,0,0,-5]];perimeter=orthogonalPerimeter;outlineConnect=0;targetShapes=umlLifeline;portConstraint=eastwest;newEdgeStyle={&quot;curved&quot;:0,&quot;rounded&quot;:0};" vertex="1" parent="fWVjkVZFptg0hxMe3k5V-9">
          <mxGeometry x="10" y="70" width="10" height="120" as="geometry" />
        </mxCell>
        <mxCell id="fWVjkVZFptg0hxMe3k5V-56" value="" style="shape=umlDestroy;whiteSpace=wrap;html=1;strokeWidth=3;targetShapes=umlLifeline;" vertex="1" parent="fWVjkVZFptg0hxMe3k5V-9">
          <mxGeometry y="270" width="30" height="30" as="geometry" />
        </mxCell>
        <mxCell id="fWVjkVZFptg0hxMe3k5V-10" value="Cliente&lt;div&gt;&lt;br&gt;&lt;/div&gt;" style="text;html=1;align=center;verticalAlign=middle;resizable=0;points=[];autosize=1;strokeColor=none;fillColor=none;" vertex="1" parent="1">
          <mxGeometry x="55" y="20" width="60" height="40" as="geometry" />
        </mxCell>
        <mxCell id="fWVjkVZFptg0hxMe3k5V-11" value="" style="shape=umlLifeline;perimeter=lifelinePerimeter;whiteSpace=wrap;html=1;container=0;dropTarget=0;collapsible=0;recursiveResize=0;outlineConnect=0;portConstraint=eastwest;newEdgeStyle={&quot;curved&quot;:0,&quot;rounded&quot;:0};participant=umlActor;" vertex="1" parent="1">
          <mxGeometry x="190" y="40" width="30" height="320" as="geometry" />
        </mxCell>
        <mxCell id="fWVjkVZFptg0hxMe3k5V-12" value="Banco&lt;div&gt;&lt;br&gt;&lt;/div&gt;" style="text;html=1;align=center;verticalAlign=middle;resizable=0;points=[];autosize=1;strokeColor=none;fillColor=none;" vertex="1" parent="1">
          <mxGeometry x="175" y="20" width="60" height="40" as="geometry" />
        </mxCell>
        <mxCell id="fWVjkVZFptg0hxMe3k5V-15" value="" style="endArrow=open;endFill=1;endSize=12;html=1;rounded=0;" edge="1" parent="1" source="fWVjkVZFptg0hxMe3k5V-16">
          <mxGeometry width="160" relative="1" as="geometry">
            <mxPoint x="90" y="160" as="sourcePoint" />
            <mxPoint x="200" y="160" as="targetPoint" />
            <Array as="points">
              <mxPoint x="90" y="160" />
              <mxPoint x="160" y="160" />
            </Array>
          </mxGeometry>
        </mxCell>
        <mxCell id="fWVjkVZFptg0hxMe3k5V-16" value="sol_aber_conta" style="text;html=1;align=center;verticalAlign=middle;resizable=0;points=[];autosize=1;strokeColor=none;fillColor=none;" vertex="1" parent="1">
          <mxGeometry x="90" y="140" width="110" height="30" as="geometry" />
        </mxCell>
        <mxCell id="fWVjkVZFptg0hxMe3k5V-18" value="" style="endArrow=block;endFill=1;html=1;edgeStyle=orthogonalEdgeStyle;align=left;verticalAlign=top;rounded=0;" edge="1" parent="1" target="fWVjkVZFptg0hxMe3k5V-31">
          <mxGeometry x="-1" relative="1" as="geometry">
            <mxPoint x="210" y="170" as="sourcePoint" />
            <mxPoint x="350" y="170" as="targetPoint" />
          </mxGeometry>
        </mxCell>
        <mxCell id="fWVjkVZFptg0hxMe3k5V-14" value="" style="html=1;points=[[0,0,0,0,5],[0,1,0,0,-5],[1,0,0,0,5],[1,1,0,0,-5]];perimeter=orthogonalPerimeter;outlineConnect=0;targetShapes=umlLifeline;portConstraint=eastwest;newEdgeStyle={&quot;curved&quot;:0,&quot;rounded&quot;:0};" vertex="1" parent="1">
          <mxGeometry x="200" y="110" width="10" height="120" as="geometry" />
        </mxCell>
        <mxCell id="fWVjkVZFptg0hxMe3k5V-26" value="solicitar_conta_comum()" style="text;html=1;align=center;verticalAlign=middle;resizable=0;points=[];autosize=1;strokeColor=none;fillColor=none;" vertex="1" parent="1">
          <mxGeometry x="210" y="140" width="150" height="30" as="geometry" />
        </mxCell>
        <mxCell id="fWVjkVZFptg0hxMe3k5V-29" value="" style="html=1;verticalAlign=bottom;endArrow=open;dashed=1;endSize=8;curved=0;rounded=0;" edge="1" parent="1">
          <mxGeometry relative="1" as="geometry">
            <mxPoint x="360" y="220.5" as="sourcePoint" />
            <mxPoint x="210" y="220" as="targetPoint" />
          </mxGeometry>
        </mxCell>
        <mxCell id="fWVjkVZFptg0hxMe3k5V-30" value="numero_agencia" style="text;html=1;align=center;verticalAlign=middle;resizable=0;points=[];autosize=1;strokeColor=none;fillColor=none;" vertex="1" parent="1">
          <mxGeometry x="235" y="190" width="110" height="30" as="geometry" />
        </mxCell>
        <mxCell id="fWVjkVZFptg0hxMe3k5V-32" value="" style="edgeStyle=orthogonalEdgeStyle;rounded=0;orthogonalLoop=1;jettySize=auto;html=1;exitX=0.5;exitY=1;exitDx=0;exitDy=0;endArrow=none;startFill=0;dashed=1;" edge="1" parent="1" source="fWVjkVZFptg0hxMe3k5V-5" target="fWVjkVZFptg0hxMe3k5V-31">
          <mxGeometry relative="1" as="geometry">
            <mxPoint x="365" y="380" as="targetPoint" />
            <mxPoint x="365" y="80" as="sourcePoint" />
            <Array as="points">
              <mxPoint x="365" y="100" />
              <mxPoint x="365" y="100" />
            </Array>
          </mxGeometry>
        </mxCell>
        <mxCell id="fWVjkVZFptg0hxMe3k5V-31" value="" style="html=1;points=[[0,0,0,0,5],[0,1,0,0,-5],[1,0,0,0,5],[1,1,0,0,-5]];perimeter=orthogonalPerimeter;outlineConnect=0;targetShapes=umlLifeline;portConstraint=eastwest;newEdgeStyle={&quot;curved&quot;:0,&quot;rounded&quot;:0};" vertex="1" parent="1">
          <mxGeometry x="360" y="110" width="10" height="120" as="geometry" />
        </mxCell>
        <mxCell id="fWVjkVZFptg0hxMe3k5V-37" value="" style="edgeStyle=orthogonalEdgeStyle;rounded=0;orthogonalLoop=1;jettySize=auto;html=1;exitX=0.5;exitY=1;exitDx=0;exitDy=0;endArrow=none;startFill=0;dashed=1;" edge="1" parent="1" source="fWVjkVZFptg0hxMe3k5V-6" target="fWVjkVZFptg0hxMe3k5V-36">
          <mxGeometry relative="1" as="geometry">
            <mxPoint x="545" y="380" as="targetPoint" />
            <mxPoint x="545" y="80" as="sourcePoint" />
            <Array as="points">
              <mxPoint x="545" y="140" />
              <mxPoint x="545" y="140" />
            </Array>
          </mxGeometry>
        </mxCell>
        <mxCell id="fWVjkVZFptg0hxMe3k5V-36" value="" style="html=1;points=[[0,0,0,0,5],[0,1,0,0,-5],[1,0,0,0,5],[1,1,0,0,-5]];perimeter=orthogonalPerimeter;outlineConnect=0;targetShapes=umlLifeline;portConstraint=eastwest;newEdgeStyle={&quot;curved&quot;:0,&quot;rounded&quot;:0};" vertex="1" parent="1">
          <mxGeometry x="540" y="110" width="10" height="120" as="geometry" />
        </mxCell>
        <mxCell id="fWVjkVZFptg0hxMe3k5V-38" value="" style="endArrow=block;endFill=1;html=1;edgeStyle=orthogonalEdgeStyle;align=left;verticalAlign=top;rounded=0;" edge="1" parent="1" target="fWVjkVZFptg0hxMe3k5V-36">
          <mxGeometry x="-1" relative="1" as="geometry">
            <mxPoint x="370" y="184.5" as="sourcePoint" />
            <mxPoint x="520" y="184.5" as="targetPoint" />
            <Array as="points">
              <mxPoint x="500" y="185" />
              <mxPoint x="500" y="185" />
            </Array>
          </mxGeometry>
        </mxCell>
        <mxCell id="fWVjkVZFptg0hxMe3k5V-39" value="solicitar_conta_comum" style="text;html=1;align=center;verticalAlign=middle;resizable=0;points=[];autosize=1;strokeColor=none;fillColor=none;" vertex="1" parent="1">
          <mxGeometry x="370" y="155" width="150" height="30" as="geometry" />
        </mxCell>
        <mxCell id="fWVjkVZFptg0hxMe3k5V-40" value="" style="html=1;verticalAlign=bottom;endArrow=open;dashed=1;endSize=8;curved=0;rounded=0;" edge="1" parent="1" source="fWVjkVZFptg0hxMe3k5V-36">
          <mxGeometry relative="1" as="geometry">
            <mxPoint x="520" y="220.5" as="sourcePoint" />
            <mxPoint x="370" y="220" as="targetPoint" />
            <Array as="points">
              <mxPoint x="400" y="220" />
            </Array>
          </mxGeometry>
        </mxCell>
        <mxCell id="fWVjkVZFptg0hxMe3k5V-41" value="numero_agencia&lt;div&gt;&lt;br&gt;&lt;/div&gt;" style="text;html=1;align=center;verticalAlign=middle;resizable=0;points=[];autosize=1;strokeColor=none;fillColor=none;" vertex="1" parent="1">
          <mxGeometry x="400" y="200" width="110" height="40" as="geometry" />
        </mxCell>
        <mxCell id="fWVjkVZFptg0hxMe3k5V-42" style="edgeStyle=orthogonalEdgeStyle;rounded=0;orthogonalLoop=1;jettySize=auto;html=1;exitX=0.5;exitY=1;exitDx=0;exitDy=0;endArrow=none;startFill=0;dashed=1;" edge="1" parent="1">
          <mxGeometry relative="1" as="geometry">
            <mxPoint x="695" y="380" as="targetPoint" />
            <mxPoint x="695" y="230" as="sourcePoint" />
          </mxGeometry>
        </mxCell>
        <mxCell id="fWVjkVZFptg0hxMe3k5V-44" value="" style="edgeStyle=orthogonalEdgeStyle;rounded=0;orthogonalLoop=1;jettySize=auto;html=1;exitX=0.5;exitY=1;exitDx=0;exitDy=0;endArrow=none;startFill=0;dashed=1;" edge="1" parent="1">
          <mxGeometry relative="1" as="geometry">
            <mxPoint x="695" y="230" as="targetPoint" />
            <mxPoint x="694.5" y="80" as="sourcePoint" />
          </mxGeometry>
        </mxCell>
        <mxCell id="fWVjkVZFptg0hxMe3k5V-46" value="" style="edgeStyle=orthogonalEdgeStyle;rounded=0;orthogonalLoop=1;jettySize=auto;html=1;exitX=0.5;exitY=1;exitDx=0;exitDy=0;endArrow=none;startFill=0;dashed=1;" edge="1" parent="1" source="fWVjkVZFptg0hxMe3k5V-36" target="fWVjkVZFptg0hxMe3k5V-45">
          <mxGeometry relative="1" as="geometry">
            <mxPoint x="545" y="380" as="targetPoint" />
            <mxPoint x="545" y="230" as="sourcePoint" />
            <Array as="points">
              <mxPoint x="545" y="280" />
              <mxPoint x="545" y="280" />
            </Array>
          </mxGeometry>
        </mxCell>
        <mxCell id="fWVjkVZFptg0hxMe3k5V-45" value="" style="html=1;points=[[0,0,0,0,5],[0,1,0,0,-5],[1,0,0,0,5],[1,1,0,0,-5]];perimeter=orthogonalPerimeter;outlineConnect=0;targetShapes=umlLifeline;portConstraint=eastwest;newEdgeStyle={&quot;curved&quot;:0,&quot;rounded&quot;:0};" vertex="1" parent="1">
          <mxGeometry x="540" y="260" width="10" height="80" as="geometry" />
        </mxCell>
        <mxCell id="fWVjkVZFptg0hxMe3k5V-47" value="" style="html=1;points=[[0,0,0,0,5],[0,1,0,0,-5],[1,0,0,0,5],[1,1,0,0,-5]];perimeter=orthogonalPerimeter;outlineConnect=0;targetShapes=umlLifeline;portConstraint=eastwest;newEdgeStyle={&quot;curved&quot;:0,&quot;rounded&quot;:0};" vertex="1" parent="1">
          <mxGeometry x="690" y="260" width="10" height="80" as="geometry" />
        </mxCell>
        <mxCell id="fWVjkVZFptg0hxMe3k5V-48" value="" style="endArrow=block;endFill=1;html=1;edgeStyle=orthogonalEdgeStyle;align=left;verticalAlign=top;rounded=0;entryX=-0.4;entryY=0.388;entryDx=0;entryDy=0;entryPerimeter=0;" edge="1" parent="1" target="fWVjkVZFptg0hxMe3k5V-47">
          <mxGeometry x="-1" relative="1" as="geometry">
            <mxPoint x="550" y="290" as="sourcePoint" />
            <mxPoint x="680" y="300" as="targetPoint" />
            <Array as="points" />
          </mxGeometry>
        </mxCell>
        <mxCell id="fWVjkVZFptg0hxMe3k5V-49" value="registrar_hist()" style="text;html=1;align=center;verticalAlign=middle;resizable=0;points=[];autosize=1;strokeColor=none;fillColor=none;" vertex="1" parent="1">
          <mxGeometry x="570" y="260" width="100" height="30" as="geometry" />
        </mxCell>
        <mxCell id="fWVjkVZFptg0hxMe3k5V-50" value="" style="html=1;verticalAlign=bottom;endArrow=open;dashed=1;endSize=8;curved=0;rounded=0;" edge="1" parent="1" source="fWVjkVZFptg0hxMe3k5V-47">
          <mxGeometry relative="1" as="geometry">
            <mxPoint x="670" y="320" as="sourcePoint" />
            <mxPoint x="550" y="320" as="targetPoint" />
          </mxGeometry>
        </mxCell>
        <mxCell id="fWVjkVZFptg0hxMe3k5V-52" value="historico_regist" style="text;html=1;align=center;verticalAlign=middle;resizable=0;points=[];autosize=1;strokeColor=none;fillColor=none;" vertex="1" parent="1">
          <mxGeometry x="570" y="290" width="100" height="30" as="geometry" />
        </mxCell>
        <mxCell id="fWVjkVZFptg0hxMe3k5V-55" value="" style="html=1;verticalAlign=bottom;endArrow=open;dashed=1;endSize=8;curved=0;rounded=0;" edge="1" parent="1" source="fWVjkVZFptg0hxMe3k5V-45">
          <mxGeometry relative="1" as="geometry">
            <mxPoint x="510" y="320" as="sourcePoint" />
            <mxPoint x="110" y="320" as="targetPoint" />
          </mxGeometry>
        </mxCell>
      </root>
    </mxGraphModel>
  </diagram>
</mxfile>
